<svg width="26" height="26" viewBox="0 0 38 39" fill="none" xmlns="http://www.w3.org/2000/svg">
    <path d="M19.0001 3.48495C16.9208 3.48495 14.8619 3.8945 12.9409 4.6902C11.0199 5.4859 9.27448 6.65217 7.80422 8.12243C4.8349 11.0918 3.16675 15.119 3.16675 19.3183C3.16675 26.3166 7.71091 32.2541 13.9967 34.36C14.7884 34.4866 15.0417 33.9958 15.0417 33.5683V30.8925C10.6559 31.8425 9.72175 28.7708 9.72175 28.7708C8.99341 26.9341 7.96425 26.4433 7.96425 26.4433C6.52341 25.4616 8.07508 25.4933 8.07508 25.4933C9.65841 25.6041 10.4976 27.1241 10.4976 27.1241C11.8751 29.5308 14.2026 28.8183 15.1051 28.4383C15.2476 27.4091 15.6592 26.7125 16.1026 26.3166C12.5876 25.9208 8.89841 24.5591 8.89841 18.5266C8.89841 16.7691 9.50008 15.36 10.5292 14.2358C10.3709 13.84 9.81675 12.1933 10.6876 10.0558C10.6876 10.0558 12.0176 9.62829 15.0417 11.6708C16.2926 11.3225 17.6542 11.1483 19.0001 11.1483C20.3459 11.1483 21.7076 11.3225 22.9584 11.6708C25.9826 9.62829 27.3126 10.0558 27.3126 10.0558C28.1834 12.1933 27.6292 13.84 27.4709 14.2358C28.5001 15.36 29.1017 16.7691 29.1017 18.5266C29.1017 24.575 25.3967 25.905 21.8659 26.3008C22.4359 26.7916 22.9584 27.7575 22.9584 29.23V33.5683C22.9584 33.9958 23.2117 34.5025 24.0192 34.36C30.3051 32.2383 34.8334 26.3166 34.8334 19.3183C34.8334 17.239 34.4239 15.1801 33.6282 13.2591C32.8325 11.3381 31.6662 9.59269 30.1959 8.12243C28.7257 6.65217 26.9802 5.4859 25.0592 4.6902C23.1382 3.8945 21.0793 3.48495 19.0001 3.48495Z" fill="#555555"/>
</svg>