<svg width="31" height="31" viewBox="0 0 31 31" fill="none" xmlns="http://www.w3.org/2000/svg">
<circle cx="15.5" cy="15.5" r="15.5" fill="white" fill-opacity="0.46"/>
<path d="M20.5165 9.35638C20.2935 9.35638 20.0756 9.4225 19.8902 9.54636C19.7048 9.67023 19.5604 9.84628 19.475 10.0523C19.3897 10.2582 19.3674 10.4849 19.4109 10.7036C19.4544 10.9222 19.5617 11.1231 19.7194 11.2808C19.8771 11.4384 20.0779 11.5458 20.2966 11.5893C20.5153 11.6328 20.7419 11.6104 20.9479 11.5251C21.1539 11.4398 21.3299 11.2953 21.4538 11.1099C21.5777 10.9246 21.6438 10.7066 21.6438 10.4837C21.6438 10.1847 21.525 9.89796 21.3136 9.68655C21.1022 9.47515 20.8155 9.35638 20.5165 9.35638ZM24.8377 11.6297C24.8194 10.8503 24.6735 10.0792 24.4056 9.34699C24.1667 8.72054 23.795 8.15328 23.3159 7.68426C22.8507 7.20275 22.2822 6.83334 21.6532 6.60396C20.9229 6.32793 20.1509 6.17861 19.3704 6.16244C18.3747 6.10608 18.0553 6.10608 15.5001 6.10608C12.945 6.10608 12.6256 6.10608 11.6298 6.16244C10.8493 6.17861 10.0773 6.32793 9.34711 6.60396C8.71929 6.83566 8.1512 7.20476 7.68438 7.68426C7.20287 8.14943 6.83346 8.71801 6.60408 9.34699C6.32805 10.0772 6.17873 10.8492 6.16256 11.6297C6.1062 12.6255 6.1062 12.9449 6.1062 15.5C6.1062 18.0552 6.1062 18.3746 6.16256 19.3703C6.17873 20.1508 6.32805 20.9228 6.60408 21.653C6.83346 22.282 7.20287 22.8506 7.68438 23.3158C8.1512 23.7953 8.71929 24.1644 9.34711 24.3961C10.0773 24.6721 10.8493 24.8214 11.6298 24.8376C12.6256 24.894 12.945 24.894 15.5001 24.894C18.0553 24.894 18.3747 24.894 19.3704 24.8376C20.1509 24.8214 20.9229 24.6721 21.6532 24.3961C22.2822 24.1667 22.8507 23.7973 23.3159 23.3158C23.7971 22.8485 24.1692 22.2807 24.4056 21.653C24.6735 20.9209 24.8194 20.1497 24.8377 19.3703C24.8377 18.3746 24.8941 18.0552 24.8941 15.5C24.8941 12.9449 24.8941 12.6255 24.8377 11.6297ZM23.1468 19.2576C23.14 19.8539 23.032 20.4447 22.8274 21.0049C22.6774 21.4137 22.4365 21.7831 22.1229 22.0852C21.8182 22.3956 21.4495 22.6361 21.0426 22.7897C20.4824 22.9943 19.8916 23.1023 19.2953 23.1091C18.3559 23.1561 18.0083 23.1655 15.5377 23.1655C13.0671 23.1655 12.7195 23.1655 11.7801 23.1091C11.161 23.1207 10.5445 23.0254 9.95772 22.8273C9.5686 22.6658 9.21687 22.426 8.92438 22.1227C8.61259 21.821 8.37469 21.4513 8.22923 21.0424C7.99988 20.4743 7.87268 19.87 7.85347 19.2576C7.85347 18.3182 7.79711 17.9706 7.79711 15.5C7.79711 13.0294 7.79711 12.6818 7.85347 11.7424C7.85768 11.1328 7.96897 10.5287 8.18226 9.95759C8.34764 9.56109 8.60148 9.20764 8.92438 8.92426C9.20978 8.60127 9.5625 8.34474 9.95772 8.17275C10.5303 7.96612 11.1338 7.85812 11.7426 7.85335C12.682 7.85335 13.0295 7.79699 15.5001 7.79699C17.9707 7.79699 18.3183 7.79699 19.2577 7.85335C19.854 7.86019 20.4448 7.96819 21.005 8.17275C21.4319 8.33118 21.815 8.58875 22.1229 8.92426C22.4307 9.21282 22.6712 9.56562 22.8274 9.95759C23.0362 10.5296 23.1443 11.1335 23.1468 11.7424C23.1938 12.6818 23.2032 13.0294 23.2032 15.5C23.2032 17.9706 23.1938 18.3182 23.1468 19.2576ZM15.5001 10.6809C14.5474 10.6828 13.6166 10.967 12.8254 11.4977C12.0341 12.0283 11.4179 12.7816 11.0546 13.6623C10.6913 14.5431 10.5972 15.5117 10.7842 16.4459C10.9712 17.3801 11.4309 18.2379 12.1052 18.9109C12.7796 19.584 13.6383 20.042 14.5728 20.2272C15.5074 20.4124 16.4759 20.3164 17.3559 19.9514C18.2359 19.5864 18.988 18.9687 19.5171 18.1764C20.0462 17.3841 20.3286 16.4527 20.3286 15.5C20.3299 14.866 20.2058 14.238 19.9634 13.6522C19.7211 13.0663 19.3653 12.5342 18.9166 12.0863C18.4679 11.6384 17.935 11.2837 17.3487 11.0425C16.7624 10.8013 16.1341 10.6784 15.5001 10.6809ZM15.5001 18.6282C14.8814 18.6282 14.2766 18.4447 13.7622 18.101C13.2478 17.7573 12.8468 17.2687 12.6101 16.6971C12.3733 16.1255 12.3114 15.4965 12.4321 14.8897C12.5528 14.2829 12.8507 13.7255 13.2882 13.2881C13.7257 12.8506 14.2831 12.5526 14.8899 12.4319C15.4967 12.3112 16.1256 12.3732 16.6972 12.61C17.2688 12.8467 17.7574 13.2477 18.1011 13.7621C18.4449 14.2765 18.6283 14.8813 18.6283 15.5C18.6283 15.9108 18.5474 16.3176 18.3902 16.6971C18.233 17.0766 18.0026 17.4215 17.7121 17.712C17.4216 18.0025 17.0768 18.2329 16.6972 18.3901C16.3177 18.5473 15.9109 18.6282 15.5001 18.6282Z" fill="black"/>
</svg>
