<svg width="31" height="31" viewBox="0 0 31 31" fill="none" xmlns="http://www.w3.org/2000/svg">
<circle cx="15.5" cy="15.5" r="15.5" fill="white" fill-opacity="0.46"/>
<path d="M10.104 9.91005C10.688 10.3841 10.906 10.3481 12.002 10.2751L22.334 9.65505C22.554 9.65505 22.371 9.43505 22.298 9.39905L20.582 8.15905C20.253 7.90405 19.815 7.61105 18.976 7.68405L8.971 8.41405C8.607 8.45005 8.534 8.63305 8.679 8.77905L10.104 9.91005ZM10.724 12.3181V23.1881C10.724 23.7731 11.016 23.9911 11.674 23.9551L23.028 23.2981C23.685 23.2621 23.758 22.8601 23.758 22.3851V11.5881C23.758 11.1141 23.576 10.8581 23.174 10.8951L11.308 11.5881C10.87 11.6241 10.724 11.8431 10.724 12.3181ZM21.934 12.9011C22.006 13.2291 21.934 13.5581 21.604 13.5951L21.057 13.7041V21.7291C20.582 21.9851 20.144 22.1301 19.779 22.1301C19.195 22.1301 19.049 21.9481 18.611 21.4011L15.032 15.7831V21.2191L16.165 21.4741C16.165 21.4741 16.165 22.1301 15.251 22.1301L12.732 22.2761C12.659 22.1301 12.732 21.7661 12.988 21.6931L13.645 21.5111V14.3241L12.732 14.2511C12.659 13.9221 12.842 13.4481 13.353 13.4111L16.055 13.2291L19.779 18.9211V13.8861L18.829 13.7771C18.757 13.3751 19.049 13.0841 19.414 13.0471L21.934 12.9011ZM8.131 7.42905L18.537 6.66305C19.814 6.55305 20.143 6.62705 20.947 7.21005L24.268 9.54505C24.816 9.94605 24.999 10.0551 24.999 10.4931V23.2981C24.999 24.1011 24.707 24.5751 23.685 24.6481L11.6 25.3781C10.833 25.4141 10.468 25.3051 10.066 24.7941L7.62 21.6201C7.182 21.0361 7 20.5991 7 20.0871V8.70505C7 8.04905 7.291 7.50205 8.131 7.42905Z" fill="black"/>
</svg>
