<svg width="336px" height="28px" viewBox="0 0 336 28" fill="none" xmlns="http://www.w3.org/2000/svg">
<path d="M5.146 16.0417C4.15852 16.0417 3.31777 15.6971 2.62375 15.0078C1.93025 14.3185 1.5835 13.4801 1.5835 12.4927C1.5835 11.5854 1.89357 10.78 2.5137 10.0765C3.13384 9.3735 3.90466 8.99614 4.82616 8.94442C5.00402 7.79122 5.53444 6.83858 6.41741 6.0865C7.30038 5.33442 8.32797 4.95837 9.50016 4.95837C10.8207 4.95837 11.9425 5.41992 12.8655 6.343C13.7886 7.26661 14.2502 8.3884 14.2502 9.70837V10.5H14.737C15.4955 10.5243 16.1317 10.8027 16.6457 11.3352C17.1598 11.8672 17.4168 12.5125 17.4168 13.2709C17.4168 14.0472 17.1492 14.7033 16.6141 15.239C16.0779 15.7741 15.4218 16.0417 14.646 16.0417H5.146Z" fill="#F8F8F8"/>
<path d="M322.146 16.0417C321.159 16.0417 320.318 15.6971 319.624 15.0078C318.93 14.3185 318.583 13.4801 318.583 12.4927C318.583 11.5854 318.894 10.78 319.514 10.0765C320.134 9.3735 320.905 8.99614 321.826 8.94442C322.004 7.79122 322.534 6.83858 323.417 6.0865C324.3 5.33442 325.328 4.95837 326.5 4.95837C327.821 4.95837 328.942 5.41992 329.866 6.343C330.789 7.26661 331.25 8.3884 331.25 9.70837V10.5H331.737C332.495 10.5243 333.132 10.8027 333.646 11.3352C334.16 11.8672 334.417 12.5125 334.417 13.2709C334.417 14.0472 334.149 14.7033 333.614 15.239C333.078 15.7741 332.422 16.0417 331.646 16.0417H322.146Z" fill="#F8F8F8"/>
<path d="M142.333 4.77344L145.875 13.3955H146.024L149.558 4.77344H152.818V17.5H150.252V9.15918H150.146L146.824 17.4385H145.058L141.744 9.1416H141.639V17.5H139.081V4.77344H142.333ZM160.509 13.3779C160.274 13.3838 159.861 13.4072 159.27 13.4482L158.426 13.5186C157.963 13.5537 157.6 13.6797 157.336 13.8965C157.072 14.1074 156.94 14.3945 156.94 14.7578C156.94 14.9922 156.999 15.1914 157.116 15.3555C157.239 15.5195 157.409 15.6455 157.626 15.7334C157.849 15.8213 158.098 15.8652 158.373 15.8652C158.766 15.8652 159.114 15.7891 159.419 15.6367C159.724 15.4785 159.961 15.2646 160.131 14.9951C160.301 14.7197 160.386 14.418 160.386 14.0898L160.368 11.0049C160.368 10.7354 160.31 10.5068 160.192 10.3193C160.081 10.126 159.908 9.98242 159.674 9.88867C159.445 9.78906 159.173 9.73926 158.856 9.73926C158.417 9.73926 158.06 9.83301 157.784 10.0205C157.509 10.2021 157.336 10.46 157.266 10.7939H154.787C154.846 10.2314 155.042 9.72754 155.376 9.28223C155.716 8.83105 156.185 8.47656 156.782 8.21875C157.386 7.96094 158.098 7.83203 158.918 7.83203C159.656 7.83203 160.33 7.94629 160.939 8.1748C161.549 8.40332 162.038 8.76074 162.407 9.24707C162.782 9.72754 162.97 10.334 162.97 11.0664V17.5H160.5V16.1816H160.43C160.271 16.4805 160.063 16.7412 159.806 16.9639C159.548 17.1865 159.237 17.3623 158.874 17.4912C158.517 17.6143 158.101 17.6758 157.626 17.6758C157.011 17.6758 156.466 17.5674 155.991 17.3506C155.517 17.1338 155.142 16.8115 154.866 16.3838C154.591 15.9561 154.453 15.4404 154.453 14.8369C154.453 13.8408 154.781 13.1172 155.438 12.666C156.1 12.2148 156.955 11.957 158.004 11.8926C158.18 11.875 158.722 11.8457 159.63 11.8047L160.491 11.7695L160.509 13.3779ZM167.303 11.5938H167.689L170.792 7.95508H173.789L169.658 12.7451H169.052L167.303 14.7139V11.5938ZM164.947 4.77344H167.549V17.5H164.947V4.77344ZM168.067 13.3252L169.799 11.4795L173.965 17.5H170.915L168.067 13.3252ZM178.913 17.6846C177.952 17.6846 177.114 17.4854 176.399 17.0869C175.69 16.6885 175.143 16.1201 174.756 15.3818C174.375 14.6436 174.185 13.7764 174.185 12.7803C174.185 11.7959 174.375 10.9316 174.756 10.1875C175.143 9.4375 175.685 8.85742 176.382 8.44727C177.079 8.03711 177.888 7.83203 178.808 7.83203C179.669 7.83203 180.437 8.01367 181.11 8.37695C181.784 8.73438 182.314 9.27637 182.701 10.0029C183.088 10.7295 183.281 11.6172 183.281 12.666V13.3955H175.248V11.7695H180.829C180.829 11.3828 180.744 11.04 180.574 10.7412C180.404 10.4365 180.17 10.1992 179.871 10.0293C179.572 9.85938 179.232 9.77441 178.852 9.77441C178.447 9.77441 178.087 9.86816 177.771 10.0557C177.454 10.2373 177.205 10.4893 177.023 10.8115C176.848 11.1338 176.757 11.4854 176.751 11.8662V13.3955C176.751 13.8701 176.842 14.2861 177.023 14.6436C177.205 15.001 177.46 15.2734 177.788 15.4609C178.122 15.6484 178.509 15.7422 178.948 15.7422C179.241 15.7422 179.508 15.7012 179.748 15.6191C179.988 15.5312 180.19 15.4199 180.354 15.2852C180.524 15.1445 180.653 14.9805 180.741 14.793H183.22C183.097 15.373 182.842 15.8828 182.455 16.3223C182.074 16.7559 181.579 17.0928 180.97 17.333C180.366 17.5674 179.681 17.6846 178.913 17.6846ZM184.916 7.95508H187.43V9.61621H187.535C187.705 9.03027 187.995 8.58496 188.405 8.28027C188.815 7.96973 189.29 7.81445 189.829 7.81445C190.11 7.81445 190.389 7.84375 190.664 7.90234V10.2227C190.553 10.1816 190.386 10.1494 190.163 10.126C189.94 10.0967 189.735 10.082 189.548 10.082C189.161 10.082 188.815 10.167 188.511 10.3369C188.206 10.501 187.963 10.7354 187.781 11.04C187.605 11.3389 187.518 11.6846 187.518 12.0771V17.5H184.916V7.95508ZM197.379 10.7939C197.32 10.4424 197.153 10.1699 196.878 9.97656C196.603 9.7832 196.248 9.68652 195.814 9.68652C195.533 9.68652 195.281 9.72754 195.059 9.80957C194.836 9.88574 194.657 10 194.522 10.1523C194.394 10.2988 194.329 10.4658 194.329 10.6533C194.323 10.876 194.417 11.0693 194.61 11.2334C194.81 11.3975 195.126 11.5234 195.56 11.6113L197.282 11.9629C198.208 12.1504 198.896 12.458 199.348 12.8857C199.805 13.3076 200.033 13.8613 200.033 14.5469C200.033 15.168 199.854 15.7158 199.497 16.1904C199.146 16.6592 198.65 17.0254 198.012 17.2891C197.379 17.5527 196.641 17.6846 195.797 17.6846C194.947 17.6846 194.212 17.5645 193.591 17.3242C192.976 17.0781 192.489 16.7324 192.132 16.2871C191.774 15.8359 191.561 15.2998 191.49 14.6787H194.101C194.177 15.042 194.358 15.3203 194.646 15.5137C194.938 15.7012 195.325 15.7949 195.806 15.7949C196.116 15.7949 196.389 15.7568 196.623 15.6807C196.863 15.6045 197.048 15.4932 197.177 15.3467C197.312 15.1943 197.379 15.0186 197.379 14.8193C197.379 14.5615 197.273 14.3535 197.062 14.1953C196.857 14.0371 196.532 13.9141 196.087 13.8262L194.505 13.5098C193.591 13.3281 192.899 13.0088 192.431 12.5518C191.968 12.0947 191.739 11.5146 191.745 10.8115C191.745 10.2021 191.909 9.6748 192.237 9.22949C192.565 8.77832 193.031 8.43262 193.635 8.19238C194.244 7.95215 194.959 7.83203 195.779 7.83203C196.576 7.83203 197.271 7.95215 197.862 8.19238C198.454 8.43262 198.917 8.77539 199.251 9.2207C199.585 9.66602 199.772 10.1904 199.813 10.7939H197.379Z" fill="white"/>
<rect x="27" y="11" width="103" height="2" rx="1" fill="white"/>
<rect x="210" y="11" width="103" height="2" rx="1" fill="white"/>
</svg>
